<svg id="svg6995" height="512" viewBox="0 0 16.933333 16.933334" width="512" xmlns="http://www.w3.org/2000/svg" xmlns:svg="http://www.w3.org/2000/svg"><g id="layer1" transform="translate(0 -280.067)"><path id="path15105" d="m8.20246 284.56468v.79297h.5293v-.79297z" fill="#5bd269" font-variant-ligatures="normal" font-variant-position="normal" font-variant-caps="normal" font-variant-numeric="normal" font-variant-alternates="normal" font-feature-settings="normal" text-indent="0" text-align="start" text-decoration-line="none" text-decoration-style="solid" text-decoration-color="#000000" text-transform="none" text-orientation="mixed" white-space="normal" shape-padding="0" isolation="auto" mix-blend-mode="normal" solid-color="#000000" solid-opacity="1" vector-effect="none"/><path id="path7175" d="m8.2398001 285.22291c-.5666402.94441-1.9105502 1.56244-3.16415 2.34766-.6268001.39261-1.23096.83436-1.68362 1.41232-.45265.57796-.7462101 1.2992-.7462101 2.19728 0 1.31822.4183001 2.23849.84388 2.82205.19948.27353.40108.47035.56276.60875h8.8284c.16121-.1384.36227-.33526.56172-.60875.42557-.58356.84594-1.50383.84594-2.82205 0-.89808-.29561-1.61932-.74827-2.19728s-1.05475-1.01971-1.68155-1.41232c-1.2536-.78522-2.5995799-1.40325-3.1662201-2.34766-.1027398-.17796-.34217-.19141-.4526798 0z" fill="#5bd269" font-variant-ligatures="normal" font-variant-position="normal" font-variant-caps="normal" font-variant-numeric="normal" font-variant-alternates="normal" font-feature-settings="normal" text-indent="0" text-align="start" text-decoration-line="none" text-decoration-style="solid" text-decoration-color="#000000" text-transform="none" text-orientation="mixed" white-space="normal" shape-padding="0" isolation="auto" mix-blend-mode="normal" solid-color="#000000" solid-opacity="1" vector-effect="none"/><path id="path7179" d="m3.4387899 294.35374c-.4351599 0-.7929699.35976-.7929699.79493v1.05664a.26460982.26460982 0 0 0 .2636699.26562h11.1132801a.26460982.26460982 0 0 0 .26563-.26562v-1.05664c0-.43517-.35977-.79493-.79492-.79493z" fill="#2f9e52" font-variant-ligatures="normal" font-variant-position="normal" font-variant-caps="normal" font-variant-numeric="normal" font-variant-alternates="normal" font-feature-settings="normal" text-indent="0" text-align="start" text-decoration-line="none" text-decoration-style="solid" text-decoration-color="#000000" text-transform="none" text-orientation="mixed" white-space="normal" shape-padding="0" isolation="auto" mix-blend-mode="normal" solid-color="#000000" solid-opacity="1" vector-effect="none"/><path id="path7164" d="m8.1989701 280.66608c-.9247402.23788-1.58334 1.0836-1.5844002 2.0469.0000101 1.16587.95132 2.11512 2.1171901 2.11512.9568101-.001 1.79161-.64578 2.03915-1.56528.13338-.25876-.188-.5118-.40824-.32143-.23616.19354-.53236.30095-.8376799.30128-.73376 0-1.3224-.59071-1.3224-1.32447-.008-.31437.1261899-.61311.29869-.83612.1714799-.2217-.0402-.48342-.30231-.416z" fill="#5bd269" font-variant-ligatures="normal" font-variant-position="normal" font-variant-caps="normal" font-variant-numeric="normal" font-variant-alternates="normal" font-feature-settings="normal" text-indent="0" text-align="start" text-decoration-line="none" text-decoration-style="solid" text-decoration-color="#000000" text-transform="none" text-orientation="mixed" white-space="normal" shape-padding="0" isolation="auto" mix-blend-mode="normal" solid-color="#000000" solid-opacity="1" vector-effect="none"/></g></svg>
